<svg id="Layer_1" data-name="Layer 1" xmlns="http://www.w3.org/2000/svg" width="100" height="100" viewBox="0 0 100 100"><g id="m48-demo-topics"><path d="M60.9595,65.39759a3.111,3.111,0,0,0,2.18506-.89722l4.14531,1.14543a3.98784,3.98784,0,0,0,.38452,2.6652l-2.2166,1.28988a4.21723,4.21723,0,1,0,.89036,1.89209l2.726-1.58488a4.13848,4.13848,0,0,0,5.30955-.60018l3.31268,1.6449a4.20678,4.20678,0,1,0,.86111-1.8982L75.39381,67.484a3.75155,3.75155,0,0,0-.05824-2.27661l3.22291-2.11894A3.18778,3.18778,0,1,0,76.9614,61.645l-2.71683,1.78629a4.13865,4.13865,0,0,0-2.79821-1.15153l-.31942-1.66524a3.12446,3.12446,0,1,0-2.00678.60018l.3006,1.56758a4.18047,4.18047,0,0,0-1.19451.96029L64.05246,62.59a3.11667,3.11667,0,1,0-3.093,2.80762Zm1.297,8.92131a2.08339,2.08339,0,1,1,1.87327-2.96224l.04934.08545a2.05814,2.05814,0,0,1,.16072.79345A2.086,2.086,0,0,1,62.2565,74.3189Zm21.61967-2.67131a2.08334,2.08334,0,1,1-4.00492-.79956l.014-.02747a2.0806,2.0806,0,0,1,3.99094.827ZM69.29284,66.43926a2.08333,2.08333,0,1,1,4.16666,0,2.05682,2.05682,0,0,1-.15258.75378l-.07426.14954a2.07057,2.07057,0,0,1-3.93982-.90332ZM79.7095,59.14759a1.04167,1.04167,0,1,1-1.04166,1.04167A1.04237,1.04237,0,0,1,79.7095,59.14759ZM68.239,58.10592a1.04167,1.04167,0,1,1,1.04167,1.04167A1.043,1.043,0,0,1,68.239,58.10592Zm-7.27946,3.125a1.03575,1.03575,0,0,1,1.02845.97555l-.17345.62663a1.02479,1.02479,0,0,1-.855.48116,1.04167,1.04167,0,0,1,0-2.08334ZM71.2172,38.301V48.71769h2.08333v-12.5h-43.75V65.38436h15.6133l-.69427,2.08333h-2.419V69.551h6.25V67.46769H46.412l.69428-2.08333h1.19425V63.301H45.80869l1.21121-4.82788a3.54756,3.54756,0,0,0-.89182-3.63566l-3.17433-2.5706,3.87071-.50965A3.39081,3.39081,0,0,0,49.37338,49.028L52.05294,38.301Zm-35.4393,0-1.57039,6.32934a3.5765,3.5765,0,0,0,.883,3.63566l3.13873,2.56958-3.82843.51066A3.37829,3.37829,0,0,0,31.88,54.07556l-.24618.99895V38.301Zm8.4244,18.14778a1.39636,1.39636,0,0,1,.25075,1.02133L35.1101,54.75l-.58187,2.00094,9.47316,2.75675L43.05993,63.301H30.86815l.884-3.58582,6.91121,2.004.57984-2.00094-6.99209-2.02738.76853-3.11686c.19328-.78024.62561-1.14339.77312-1.16272l5.76171-.767Zm4.068-14.23543-9.02506-2.6296-.58187,2.00094,9.107,2.653L46.70983,48.5295c-.19226.78024-.62459,1.14339-.77311,1.16272l-5.76121.767-4.64834-3.80554a1.72234,1.72234,0,0,1-.18005-1.52385l.16988-.68461,9.02,2.62757.58187-2.00094-9.09933-2.651L37.04186,38.301H49.23668ZM94.13386,50.801h-43.75V79.96769h16.6995L66.25023,82.051h-1.283v2.08333H79.55053V82.051H76.91816L76.085,79.96769H94.13386ZM74.72242,82.051H68.446l.83339-2.08334H73.889Zm17.32811-4.16667H52.4672l.086-25H92.05053Zm-64.268-45.91878,2.61535-.69987-.53914-2.01314-2.09452.56152-.297-.07426V28.00338l.30619-.0824,2.08537.55847.53914-2.01212-2.62451-.70292-2.38953.64087v1.47908H23.123a3.10848,3.10848,0,0,0-5.83445-.194l-.0529-.00919-.06358.38492a3.10762,3.10762,0,0,0-.09994.6034L14.96008,41.4319a5.21081,5.21081,0,0,0-2.07622,4.14931v3.13648H10.80053v-25H50.38386V34.13436H52.4672v-12.5H8.7172V50.801H24.3305l-.69428,2.08333h-2.419v2.08333h4.16666V52.88436h-.43459l.69428-2.08333H27.4672V48.71769H23.30053V45.57993a5.21382,5.21382,0,0,0-2.064-4.14079l1.89819-11.47145h2.24914V31.3654Zm-8.48971-4.11377a1.03821,1.03821,0,0,1,1.03429,1.00505l-.06739.4069a1.03329,1.03329,0,0,1-2.00069-.33162l.07248-.43539A1.0403,1.0403,0,0,1,19.29284,27.85181ZM14.9672,48.71769v-3.125a3.125,3.125,0,0,1,6.25,0v3.125Zm2.2423-8.39639a5.168,5.168,0,0,0-.85652.08646l1.45823-8.7799a2.89647,2.89647,0,0,0,1.99941.33874l-1.413,8.50423A5.201,5.201,0,0,0,17.2095,40.3213Z"/></g></svg>