<svg id="Layer_1" data-name="Layer 1" xmlns="http://www.w3.org/2000/svg" width="100" height="100" viewBox="0 0 100 100"><g id="m48-communication-chat"><path d="M34.43057,20.19341v12.5h-25V72.27674h7.86729l3.05171,10.512,11.38692-10.512H65.68057v-12.5h2.69369L79.76139,71.47132l3.05175-11.69458h7.86743V20.19341Zm29.16667,50H30.8734l-9.44579,9.4462-2.53081-9.4462H11.51391V34.77674H34.43057v25H63.59724Zm25-12.5H81.214L78.6831,67.42557l-9.44621-9.73216H65.68057v-.001H63.59724v.001H36.51391V22.27674H88.59724ZM76.95179,45.48682a5.20834,5.20834,0,1,0-5.20732-5.20834A5.21447,5.21447,0,0,0,76.95179,45.48682Zm0-8.33334a3.125,3.125,0,1,1-3.124,3.125A3.12842,3.12842,0,0,1,76.95179,37.15348ZM62.36947,45.48682a5.20834,5.20834,0,1,0-5.20833-5.20834A5.21447,5.21447,0,0,0,62.36947,45.48682Zm0-8.33334a3.125,3.125,0,1,1-3.125,3.125A3.12842,3.12842,0,0,1,62.36947,37.15348ZM47.78716,45.48682a5.20834,5.20834,0,1,0-5.20834-5.20834A5.21447,5.21447,0,0,0,47.78716,45.48682Zm0-8.33334a3.125,3.125,0,1,1-3.125,3.125A3.12842,3.12842,0,0,1,47.78716,37.15348Z"/></g></svg>