<svg id="Layer_1" data-name="Layer 1" xmlns="http://www.w3.org/2000/svg" width="100" height="100" viewBox="0 0 100 100"><g id="m48-learning-development-online-education"><path d="M88.28212,70.96935V23.05269H11.19879V70.96935h30.9316l-1.6744,6.25H34.11545v2.08334h31.25V77.21935h-6.34l-1.67527-6.25Zm-75-45.83333H86.19879v43.75H13.28212ZM57.83648,77.21935H43.584l1.67389-6.25H56.16183Zm-.80436-25h6.25v2.08334h-6.25Zm-2.08333-4.16666V45.96935h12.5V43.886H63.28212V33.46935h4.16667V31.386H35.44805l-2.43021,7.29167,2.43021,7.29166h7.00074v2.08334H34.11545V50.136h4.16667V60.55269H34.11545V62.636h33.685l2.55812-7.29167-2.55812-7.29166Zm-10.41667-6.25h6.25v9.77274L47.72787,50.016l-3.19575,1.58285ZM36.06024,43.886,34.3298,38.67769l1.73044-5.20834H61.19879v2.08334H50.78212V37.636H61.19879v6.25H52.86545V41.80269h4.16667V39.71935H40.36545v2.08334h2.08334V43.886ZM63.44086,60.55269H38.28212V58.46935h6.25V56.386h-6.25v-6.25h4.16667v4.78719l5.2656-2.58382,5.15106,2.60722V50.136H63.44086l1.715,5.20833Z"/></g></svg>