<?xml version="1.0" encoding="utf-8"?>
<!-- Generator: Adobe Illustrator 27.1.1, SVG Export Plug-In . SVG Version: 6.00 Build 0)  -->
<svg version="1.1" id="Art_3.0" xmlns="http://www.w3.org/2000/svg" xmlns:xlink="http://www.w3.org/1999/xlink" x="0px" y="0px"
	 viewBox="0 0 48 48" style="enable-background:new 0 0 48 48;" xml:space="preserve">
<style type="text/css">
	.st0{fill:#FFFFFF;}
	.st1{fill:#FFFFFF;fill-opacity:0;}
</style>
<path class="st0" d="M30,19.49365c0.82715,0,1.5-0.67285,1.5-1.5s-0.67285-1.5-1.5-1.5c-0.40387,0-0.76947,0.16211-1.03937,0.42285
	l-3.479-1.73975C25.48902,15.1162,25.5,15.05712,25.5,14.99511c0-0.82715-0.67285-1.5-1.5-1.5s-1.5,0.67285-1.5,1.5
	c0,0.06201,0.01099,0.12109,0.01837,0.18164l-3.51221,1.75635C18.7395,16.68994,18.38842,16.53759,18,16.53759
	c-0.82715,0-1.5,0.67285-1.5,1.5s0.67285,1.5,1.5,1.5c0.1355,0,0.2644-0.02393,0.38934-0.05762l1.0097,1.51465l-0.00012,0.00049
	h0.00006l-1.03357,1.5498c-0.11761-0.0293-0.23871-0.0498-0.36542-0.0498c-0.82715,0-1.5,0.67285-1.5,1.5s0.67285,1.5,1.5,1.5
	c0.40332,0,0.76831-0.16211,1.03815-0.42188l3.48029,1.73975C22.51098,26.87304,22.5,26.93261,22.5,26.99511
	c0,0.82715,0.67285,1.5,1.5,1.5s1.5-0.67285,1.5-1.5c0-0.0625-0.01093-0.12207-0.01837-0.18213l3.48022-1.73975
	C29.23169,25.333,29.59668,25.49511,30,25.49511c0.82715,0,1.5-0.67285,1.5-1.5s-0.67285-1.5-1.5-1.5
	c-0.12671,0-0.2478,0.02051-0.36542,0.0498l-1.03357-1.5498h0.00006l-0.00006-0.00049l1.03418-1.55078
	C29.75262,19.47314,29.87347,19.49364,30,19.49365z M24,25.49511c-0.12665,0-0.24774,0.02051-0.3653,0.0498l-1.90424-2.85596
	l1.23138-0.61572c0.26984,0.25977,0.63483,0.42188,1.03815,0.42188c0.40338,0,0.76849-0.16211,1.03833-0.42188l1.23132,0.61523
	l-0.00012,0.00049h0.00006l-1.9043,2.85596c-0.11755-0.0293-0.23865-0.0498-0.3653-0.0498H24z M22.51837,20.81298
	C22.51098,20.87304,22.5,20.93261,22.5,20.99511c0,0.06201,0.01099,0.12158,0.01837,0.18164l-1.34711,0.67334l-0.57019-0.85498
	l0.57019-0.85547L22.51837,20.81298z M23.5,20.99511c0-0.27588,0.22412-0.5,0.5-0.5s0.5,0.22412,0.5,0.5
	c0,0.27539-0.22412,0.5-0.5,0.5S23.5,21.2705,23.5,20.99511z M25.46027,16.28417l3.05798,1.5293
	C28.51093,17.87304,28.5,17.93212,28.5,17.99365c0,0.06299,0.01099,0.12256,0.01849,0.18311l-1.34723,0.67334
	C27.17126,18.8501,25.46026,16.28418,25.46027,16.28417z M24.36542,16.44481l1.90411,2.85596l-1.23138,0.61572
	C24.76831,19.65672,24.40332,19.4951,24,19.4951s-0.76831,0.16162-1.03815,0.42139l-1.23138-0.61572l1.90411-2.85596
	C23.75219,16.4746,23.87329,16.4951,24,16.4951S24.2478,16.47459,24.36542,16.44481z M20.82862,18.85008l-1.3429-0.67139
	C19.49024,18.13133,19.5,18.08592,19.5,18.03758c0-0.07617-0.01147-0.14893-0.02246-0.22217l3.06189-1.53076
	C22.53943,16.28465,20.82861,18.85008,20.82862,18.85008z M19.48164,23.81297l1.34698-0.67334l0.71576,1.07324l0.99506,1.49268
	l-3.0578-1.52881c0.00745-0.06006,0.01837-0.11963,0.01837-0.18164C19.50001,23.9326,19.48902,23.87352,19.48164,23.81297z
	 M27.17128,23.13963l1.34711,0.67334c-0.00739,0.06006-0.01837,0.11963-0.01837,0.18213c0,0.06201,0.01099,0.12158,0.01837,0.18164
	l-3.05792,1.52881C25.46047,25.70555,27.17129,23.13964,27.17128,23.13963z M27.39894,20.9951l-0.57031,0.85498l-1.34698-0.67334
	c0.00739-0.06055,0.01837-0.11963,0.01837-0.18164c0-0.0625-0.01099-0.12207-0.01837-0.18213l1.34711-0.67334L26.8464,20.166
	C26.8464,20.166,27.39895,20.9951,27.39894,20.9951z M30.00001,17.49364c0.27588,0,0.5,0.22412,0.5,0.5s-0.22412,0.5-0.5,0.5
	s-0.5-0.22412-0.5-0.5S29.72413,17.49364,30.00001,17.49364z M24.00001,14.4951c0.27588,0,0.5,0.22412,0.5,0.5
	c0,0.27539-0.22412,0.5-0.5,0.5s-0.5-0.22461-0.5-0.5C23.50001,14.71922,23.72413,14.4951,24.00001,14.4951z M17.50001,18.03758
	c0-0.27588,0.22412-0.5,0.5-0.5s0.5,0.22412,0.5,0.5s-0.22412,0.5-0.5,0.5S17.50001,18.31347,17.50001,18.03758z M19.46101,19.28416
	l0.80865,0.4043l-0.00012,0.00049h0.00006l-0.26965,0.4043l-0.53894-0.80908V19.28416z M20.2696,22.30076h-0.00006h0.00012
	l-0.80914,0.40479l0.53943-0.80908l0.26965,0.4043L20.2696,22.30076z M18.00001,24.4951c-0.27588,0-0.5-0.22461-0.5-0.5
	c0-0.27588,0.22412-0.5,0.5-0.5s0.5,0.22412,0.5,0.5C18.50001,24.27049,18.27589,24.4951,18.00001,24.4951z M24.00001,27.4951
	c-0.27588,0-0.5-0.22461-0.5-0.5c0-0.27588,0.22412-0.5,0.5-0.5s0.5,0.22412,0.5,0.5
	C24.50001,27.27049,24.27589,27.4951,24.00001,27.4951z M30.50001,23.9951c0,0.27539-0.22412,0.5-0.5,0.5s-0.5-0.22461-0.5-0.5
	c0-0.27588,0.22412-0.5,0.5-0.5S30.50001,23.71922,30.50001,23.9951z M28.5395,22.70555l-0.25677-0.12842l-0.55225-0.27637
	l0.03748-0.05615l0.23218-0.34814C28.00014,21.89647,28.53951,22.70555,28.5395,22.70555z M27.82032,19.82371l-0.08984-0.13477
	l0.54517-0.27295l0.26379-0.13184l-0.53937,0.80908C28.00007,20.09324,27.82032,19.82371,27.82032,19.82371z M42.50489,37.49998
	V22.63964l-9-3V13.6699l-9.5-4.22217l-9.5,4.22217v5.96973l-9,3v14.86035h-1v1h39v-1H42.50489z M6.50489,37.49998V23.36033l8-2.6665
	v16.80615H6.50488H6.50489z M21.50489,37.49511v-3.49512c0-1.37842,1.12158-2.5,2.5-2.5s2.5,1.12158,2.5,2.5v3.49512H21.50489z
	 M27.50489,37.49998v-3.5c0-1.92969-1.57031-3.5-3.5-3.5s-3.5,1.57031-3.5,3.5v3.5h-5V14.31982l8.5-3.77783l8.5,3.77783V37.5h-5
	V37.49998z M33.50489,37.49998V20.69383l8,2.6665v14.13965H33.50489z M35.50489,29.49511h1v2.00488h-1V29.49511z M38.50489,29.49511
	h1v2.00488h-1V29.49511z M35.50489,25.49511h1v2.00488h-1V25.49511z M38.50489,25.49511h1v2.00488h-1V25.49511z M35.50489,33.49511
	h1v2.00488h-1V33.49511z M38.50489,33.49511h1v2.00488h-1V33.49511z M8.50489,29.49511h1v2.00488h-1V29.49511z M11.50489,29.49511h1
	v2.00488h-1V29.49511z M8.50489,25.49511h1v2.00488h-1V25.49511z M11.50489,25.49511h1v2.00488h-1V25.49511z M8.50489,33.49511h1
	v2.00488h-1V33.49511z M11.50489,33.49511h1v2.00488h-1V33.49511z"/>
<rect class="st1" width="48" height="48"/>
</svg>
